# xmcd
#
# Track frame offsets:
#	150
#	15055
#	31907
#	43026
#	54923
#	68780
#	84986
#	99521
#	114936
#	128556
#	143137
#	155959
#	170118
#	183099
#	195099
#	207909
#	225172
#	239393
#	254030
#	267347
#	280367
#	293969
#	306278
#	320442
#	333265
#
# Disc length: 4704 seconds
#
# Revision: 0
# Processed by: cddbd v1.5.1PL0 Copyright (c) Steve Scherf et al.
# Submitted via: EasyCDDAExtractor 8.2.3.1
#
DISCID=56125e19
DTITLE=Josh White - Wanderings
DYEAR=2005
DGENRE=Blues
TTITLE0=Wanderings
TTITLE1=Careless Love (With Sidney Bechet)
TTITLE2=Evil Hearted Man
TTITLE3=Joshua Fit the Battle of Jericho
TTITLE4=One Meat Ball
TTITLE5=Waltzing Matilda
TTITLE6=John Henry
TTITLE7=Trouble
TTITLE8=Apples, Peaches and Cherries
TTITLE9=Strange Fruit
TTITLE10=Bon-Bons, Chocolate and Chewing Gum
TTITLE11=The Man Who Couldn't Walk Around
TTITLE12=Sometime (With Sonny Terry and Brownie McGhee)
TTITLE13=The Riddle Song
TTITLE14=Miss Otis Regrets
TTITLE15=Dupree
TTITLE16=I'm Gonna Move to the Outskirts of Town
TTITLE17=The Foggy, Foggy Dew
TTITLE18=Take a Gal Like You
TTITLE19=Like a Natural Man
TTITLE20=Hard Time Blues
TTITLE21=Lonesome Road
TTITLE22=The Lass With the Delicate Air
TTITLE23=He Never Said a Mumblin' Word
TTITLE24=Free and Equal Blues
EXTD=
EXTT0=
EXTT1=
EXTT2=
EXTT3=
EXTT4=
EXTT5=
EXTT6=
EXTT7=
EXTT8=
EXTT9=
EXTT10=
EXTT11=
EXTT12=
EXTT13=
EXTT14=
EXTT15=
EXTT16=
EXTT17=
EXTT18=
EXTT19=
EXTT20=
EXTT21=
EXTT22=
EXTT23=
EXTT24=
PLAYORDER=
